<?xml version="1.0" standalone="no"?>
<!DOCTYPE svg PUBLIC "-//W3C//DTD SVG 20010904//EN"
 "http://www.w3.org/TR/2001/REC-SVG-20010904/DTD/svg10.dtd">
<svg version="1.0" xmlns="http://www.w3.org/2000/svg"
 width="512.000000pt" height="512.000000pt" viewBox="0 0 512.000000 512.000000"
 preserveAspectRatio="xMidYMid meet">
<g transform="translate(0.000000,512.000000) scale(0.100000,-0.100000)"
fill="#000000" stroke="none">
<path d="M2320 5070 c-1081 -112 -1958 -876 -2210 -1925 -52 -215 -64 -327
-64 -585 0 -174 4 -265 17 -350 101 -661 428 -1227 942 -1631 820 -646 1962
-717 2851 -179 436 263 781 648 991 1105 147 321 217 614 230 970 19 537 -125
1038 -432 1499 -157 235 -410 492 -642 653 -46 32 -54 34 -70 22 -16 -13 -17
-12 -5 3 12 14 4 22 -70 68 -256 159 -615 287 -938 335 -133 20 -473 28 -600
15z m393 -16 c3 -3 36 -7 74 -10 37 -2 102 -8 143 -14 41 -7 85 -13 97 -14 13
-1 26 -6 30 -9 3 -4 20 -7 37 -7 24 0 27 -3 16 -10 -10 -6 -3 -7 24 -3 26 4
37 3 33 -4 -4 -7 2 -11 16 -11 30 0 118 -21 139 -32 10 -6 27 -10 38 -10 13 0
19 -4 14 -11 -4 -8 1 -9 16 -4 17 5 21 4 15 -5 -5 -9 -4 -11 4 -6 16 10 53 -3
45 -16 -5 -7 -2 -8 5 -3 7 4 23 3 34 -2 12 -6 42 -19 67 -30 112 -50 161 -78
152 -87 -4 -5 0 -7 8 -5 22 4 57 -10 64 -26 3 -8 21 -17 41 -21 35 -6 61 -34
47 -49 -4 -5 -1 -5 5 -1 15 8 46 -7 41 -19 -1 -5 6 -9 17 -10 24 -2 87 -39 80
-47 -3 -3 2 -11 12 -19 15 -12 16 -12 8 1 -8 13 -7 13 10 0 10 -8 30 -25 43
-37 14 -13 29 -20 34 -17 12 7 6 -19 -7 -28 -5 -4 4 -6 20 -5 23 2 30 -2 29
-16 -2 -14 1 -15 11 -7 18 15 14 -12 -4 -34 -8 -9 -11 -19 -7 -23 3 -3 6 -1 6
7 0 10 4 10 18 -1 15 -12 16 -12 4 2 -10 13 -9 19 5 30 15 12 16 12 10 -3 -4
-12 -2 -15 8 -11 9 3 18 -4 24 -18 5 -13 10 -20 10 -16 1 4 12 -3 24 -17 13
-14 28 -22 32 -18 5 4 5 2 2 -4 -8 -13 20 -54 36 -54 7 0 28 -17 47 -37 19
-21 26 -31 15 -23 -18 14 -19 14 -7 -2 8 -10 10 -23 6 -30 -6 -11 -5 -11 8 0
14 11 19 10 32 -9 8 -12 12 -27 9 -32 -3 -6 -1 -7 5 -3 6 3 17 -1 24 -10 7 -9
25 -29 40 -45 15 -16 30 -38 33 -49 3 -11 24 -39 46 -62 24 -26 38 -50 36 -60
-3 -10 2 -23 12 -30 15 -12 15 -11 1 7 -14 19 -14 19 3 6 10 -8 16 -20 13 -27
-3 -9 1 -11 12 -6 15 5 15 3 -2 -23 l-19 -30 21 19 c12 11 22 17 23 15 0 -2 2
-12 4 -22 2 -10 11 -27 20 -37 11 -12 14 -28 10 -50 -5 -28 -4 -31 8 -21 11 9
17 8 25 -1 19 -24 41 -89 36 -106 -5 -15 -4 -15 6 -2 10 13 11 11 7 -7 -4 -16
-1 -20 11 -16 11 5 14 2 9 -10 -3 -9 -2 -19 3 -22 5 -3 6 -13 3 -23 -3 -9 -2
-14 2 -10 11 10 47 -71 38 -85 -3 -5 -1 -7 4 -4 6 4 14 0 17 -9 4 -10 2 -13
-7 -8 -6 4 -4 -2 6 -13 9 -11 15 -22 11 -25 -3 -3 4 -26 16 -50 21 -45 22 -50
35 -128 4 -25 12 -48 17 -51 5 -3 12 -34 15 -67 3 -34 8 -60 12 -58 3 2 7 -6
8 -17 0 -12 6 -53 12 -92 28 -177 34 -533 13 -670 -6 -38 -14 -88 -18 -110 -4
-22 -8 -51 -10 -65 -9 -64 -27 -135 -34 -140 -4 -3 -10 -23 -14 -45 -11 -75
-16 -95 -36 -130 -23 -40 -25 -49 -9 -39 16 9 -11 -38 -30 -54 -10 -9 -11 -11
-2 -6 10 5 13 3 8 -7 -3 -8 -17 -40 -30 -72 -13 -32 -33 -65 -43 -73 -11 -9
-13 -12 -6 -9 19 10 -14 -67 -33 -78 -8 -4 -15 -13 -15 -20 0 -7 4 -6 10 3 5
8 10 10 10 4 0 -6 -8 -20 -18 -32 -14 -16 -22 -18 -30 -10 -8 8 -11 5 -9 -10
0 -11 4 -19 8 -16 4 2 5 -5 2 -16 -3 -11 -9 -20 -13 -20 -9 0 -22 -31 -29 -67
0 -3 -11 2 -23 13 l-21 19 16 -26 c16 -25 16 -26 -10 -50 -20 -18 -24 -19 -13
-4 8 11 18 22 21 25 4 3 0 12 -9 20 -14 13 -15 12 -10 -2 4 -9 1 -24 -7 -34
-10 -15 -11 -22 -2 -33 7 -8 7 -12 2 -9 -6 3 -19 -11 -29 -32 -10 -22 -24 -38
-29 -37 -6 1 -11 -3 -12 -9 0 -6 -13 -28 -30 -48 -16 -21 -29 -43 -27 -48 1
-5 -2 -7 -7 -4 -5 4 -12 -3 -16 -14 -6 -18 -17 -25 -38 -21 -5 1 -6 -3 -3 -8
6 -9 -49 -91 -61 -91 -3 0 1 8 9 18 8 9 18 24 22 32 4 8 -2 3 -14 -12 -14 -18
-26 -25 -38 -21 -16 6 -16 5 1 -11 18 -19 23 -31 8 -21 -5 3 -12 -4 -16 -14
-3 -11 -12 -18 -19 -15 -11 4 -62 -43 -69 -63 -1 -5 -5 -7 -8 -6 -4 1 -17 -10
-30 -25 -20 -22 -20 -24 -4 -12 15 10 14 8 -3 -7 -26 -26 -52 -32 -33 -9 8 9
8 16 2 20 -5 4 -12 2 -16 -4 -4 -6 -12 -7 -18 -3 -7 3 -4 -3 6 -14 21 -24 22
-37 3 -30 -10 4 -13 1 -10 -8 4 -9 -4 -19 -20 -26 -14 -7 -23 -17 -19 -23 3
-6 3 -8 -2 -4 -7 6 -21 -2 -81 -52 -7 -5 -15 -6 -18 -3 -3 4 -6 -2 -6 -11 0
-13 -5 -16 -17 -12 -10 4 -14 4 -10 0 10 -10 -31 -36 -45 -28 -7 5 -8 3 -3 -6
6 -10 4 -12 -10 -6 -14 5 -16 4 -7 -7 9 -10 9 -14 -1 -15 -6 -1 -27 -4 -45 -7
-19 -2 -31 -1 -27 4 3 5 1 12 -4 15 -5 3 -7 -8 -6 -25 2 -27 -2 -33 -26 -42
-16 -6 -29 -15 -29 -19 0 -12 -54 -36 -69 -30 -9 3 -11 0 -6 -8 6 -10 4 -12
-8 -7 -10 3 -17 2 -17 -3 0 -14 -67 -43 -81 -34 -7 4 -9 3 -5 -4 8 -14 -59
-47 -75 -36 -8 4 -9 3 -5 -4 5 -8 0 -12 -13 -12 -12 0 -21 -5 -21 -11 0 -6 -7
-9 -15 -5 -8 3 -15 1 -15 -5 0 -6 -7 -8 -16 -5 -8 3 -12 2 -9 -4 3 -6 -2 -11
-12 -11 -41 -4 -50 -6 -83 -21 -19 -9 -64 -22 -100 -29 -36 -7 -68 -18 -71
-23 -4 -5 -22 -6 -40 -2 -24 4 -30 3 -19 -4 12 -8 11 -10 -8 -10 -13 0 -32 -5
-43 -10 -13 -8 -19 -7 -19 0 0 7 -6 7 -21 -1 -83 -44 -665 -61 -799 -24 -20 6
-99 17 -127 19 -13 0 -23 4 -23 9 0 4 -17 7 -37 7 -28 0 -34 3 -23 10 10 6 3
8 -22 3 -27 -4 -38 -2 -38 7 0 8 -10 11 -29 8 -17 -2 -28 -1 -25 4 4 7 -14 9
-51 8 -3 0 -18 6 -35 15 -16 8 -51 20 -79 26 -27 6 -52 17 -55 25 -3 8 -11 14
-18 14 -9 0 -8 -3 2 -10 27 -17 1 -10 -37 10 -21 11 -45 20 -53 20 -13 0 -13
1 0 10 11 7 7 10 -17 10 -17 0 -35 5 -39 12 -5 7 -3 8 6 3 9 -5 11 -4 6 4 -4
6 -12 9 -17 5 -11 -7 -174 70 -196 92 -8 8 -19 15 -24 15 -5 1 -13 3 -19 4 -5
1 -13 3 -17 4 -3 0 2 11 13 23 17 20 17 21 1 8 -16 -12 -20 -12 -28 1 -6 10
-9 11 -9 1 0 -7 -5 -10 -10 -7 -6 4 -8 11 -4 16 3 5 0 8 -8 7 -7 -2 -12 3 -10
10 1 8 -2 11 -8 7 -11 -7 -92 38 -91 51 1 5 -5 9 -11 9 -7 0 -17 6 -21 13 -4
6 -15 12 -23 12 -8 0 -13 4 -10 9 6 9 -22 26 -37 22 -5 -1 -6 3 -3 8 4 5 -3
12 -14 16 -19 6 -25 17 -21 39 1 5 -5 4 -13 -3 -12 -10 -14 -9 -12 4 1 8 8 21
14 27 7 7 12 17 12 22 0 6 -7 0 -16 -12 -8 -12 -20 -22 -25 -22 -14 0 -115
102 -112 112 2 5 -1 8 -7 8 -14 0 -60 41 -60 54 -1 6 -12 25 -26 41 -15 17
-23 23 -19 15 5 -8 15 -23 23 -32 8 -10 12 -18 9 -18 -12 0 -67 82 -61 91 3 5
2 9 -3 8 -21 -4 -32 3 -38 21 -4 11 -11 17 -17 14 -6 -4 -8 -3 -5 3 3 5 -7 25
-24 44 -16 19 -29 37 -29 40 0 3 -14 21 -30 39 -26 30 -35 48 -32 72 1 3 -6
12 -16 20 -16 12 -16 11 -3 -7 14 -19 14 -19 -3 -4 -15 14 -16 20 -6 40 13 24
13 24 -7 6 -20 -17 -21 -17 -28 0 -10 22 -10 21 -19 56 -5 15 -13 27 -18 27
-6 0 -7 7 -4 16 4 10 2 13 -6 8 -8 -5 -9 -2 -5 9 4 10 2 16 -6 14 -14 -2 -58
83 -52 101 3 8 0 10 -7 6 -7 -5 -9 0 -6 14 4 12 3 20 -1 17 -11 -6 -33 44 -25
58 4 7 4 9 -1 5 -14 -13 -67 114 -61 147 4 21 3 26 -3 15 -11 -17 -8 -23 -36
75 -9 33 -21 73 -26 89 -5 15 -6 32 -3 37 3 5 0 9 -7 9 -7 0 -10 11 -7 29 2
17 1 28 -3 26 -6 -4 -11 13 -23 85 -22 130 -28 174 -31 230 -2 35 -7 86 -10
113 -6 38 -4 48 5 42 9 -6 9 -3 0 15 -15 28 -5 272 17 415 8 55 16 109 17 121
1 11 5 24 8 30 3 5 9 30 12 56 4 26 11 50 17 53 5 4 7 10 5 14 -3 3 5 38 16
76 11 39 23 83 25 98 4 20 10 27 21 22 12 -4 12 -3 3 9 -9 11 -8 23 5 55 26
67 51 111 58 104 6 -6 10 27 7 57 -2 13 -1 13 8 0 11 -16 15 -8 11 24 -1 12 2
16 11 11 7 -5 10 -4 6 3 -9 13 50 142 65 142 5 0 8 5 8 10 0 6 10 31 21 55 17
37 24 43 35 34 8 -6 14 -16 14 -21 0 -6 -6 -6 -14 1 -11 9 -16 9 -22 -1 -4 -7
-4 -10 1 -6 4 4 14 3 21 -3 18 -15 27 6 12 30 -9 15 -9 23 1 35 7 9 18 13 24
9 6 -3 7 -1 3 6 -8 12 30 81 45 81 5 0 9 6 9 13 0 6 16 30 35 51 19 22 31 44
28 49 -3 6 -1 7 5 3 6 -3 13 3 17 14 6 19 18 25 40 20 6 -1 7 2 2 6 -14 14 83
133 109 134 6 0 18 8 25 18 13 15 12 16 -4 3 -15 -12 -17 -12 -11 3 3 9 10 16
16 16 5 0 31 23 57 50 26 28 54 50 61 50 10 0 10 -3 1 -14 -8 -9 -8 -16 -2
-20 5 -4 12 -2 16 4 4 6 12 7 18 3 7 -3 4 3 -6 14 -21 24 -22 37 -3 30 10 -4
13 -1 10 8 -3 8 4 19 18 26 13 7 42 28 66 48 24 20 47 36 52 36 6 0 9 3 8 8
-4 9 61 50 82 52 8 0 16 5 18 10 6 18 35 45 42 40 4 -3 11 2 14 11 3 8 10 13
15 10 5 -3 19 3 32 13 13 10 30 16 38 13 8 -2 11 0 8 5 -8 13 41 36 55 27 7
-4 8 -2 4 4 -8 13 81 55 101 48 7 -3 12 0 10 7 -1 7 10 13 26 15 15 2 27 8 27
14 0 5 8 7 17 4 10 -4 14 -4 10 0 -15 15 111 65 146 57 18 -4 19 -3 7 6 -13 9
-12 11 5 11 11 0 43 8 70 18 28 10 56 17 64 14 8 -3 11 -1 8 4 -5 9 18 14 85
16 23 1 33 5 25 10 -8 5 -6 8 8 9 11 1 24 1 29 0 4 -1 14 4 22 10 11 9 14 9
14 0 0 -8 5 -9 19 -1 24 12 141 30 234 35 38 2 71 6 74 9 4 3 72 6 153 6 81 0
149 -3 153 -6z m1625 -739 c-3 -3 -9 2 -12 12 -6 14 -5 15 5 6 7 -7 10 -15 7
-18z m-8 -3526 c-7 -11 -14 -18 -17 -15 -3 3 0 12 7 21 18 21 23 19 10 -6z
m-455 -358 c-3 -6 -11 -8 -17 -5 -6 4 -5 9 3 15 16 10 23 4 14 -10z"/>
<path d="M3530 4830 c8 -5 20 -10 25 -10 6 0 3 5 -5 10 -8 5 -19 10 -25 10 -5
0 -3 -5 5 -10z"/>
<path d="M1410 4746 c0 -2 7 -7 16 -10 8 -3 12 -2 9 4 -6 10 -25 14 -25 6z"/>
<path d="M3685 4740 c-3 -6 1 -7 9 -4 18 7 21 14 7 14 -6 0 -13 -4 -16 -10z"/>
<path d="M3730 4740 c-8 -5 -10 -10 -5 -10 6 0 17 5 25 10 8 5 11 10 5 10 -5
0 -17 -5 -25 -10z"/>
<path d="M3849 4698 c-6 -20 -6 -39 0 -42 4 -3 7 6 7 20 0 20 -4 32 -7 22z"/>
<path d="M1160 4610 c-9 -6 -10 -10 -3 -10 6 0 15 5 18 10 8 12 4 12 -15 0z"/>
<path d="M1138 4573 c7 -3 16 -2 19 1 4 3 -2 6 -13 5 -11 0 -14 -3 -6 -6z"/>
<path d="M2485 4429 c-33 -4 -76 -12 -95 -18 -19 -6 -57 -17 -85 -24 -27 -8
-45 -16 -40 -19 6 -3 4 -3 -3 -1 -12 3 -22 -3 -57 -35 -8 -7 -20 -10 -26 -6
-8 5 -9 3 -4 -6 6 -10 1 -12 -21 -7 -16 3 -23 4 -16 1 6 -3 12 -10 12 -15 0
-6 -9 -5 -22 1 -21 10 -22 10 -5 -3 20 -17 13 -24 -19 -22 -16 2 -20 -2 -17
-16 3 -11 -1 -21 -11 -25 -9 -3 -13 -11 -9 -18 4 -7 1 -6 -9 1 -12 11 -18 10
-32 -6 -10 -11 -14 -25 -10 -36 5 -13 4 -16 -4 -11 -8 5 -10 1 -5 -10 5 -13 3
-16 -10 -11 -10 4 -21 -3 -32 -20 -10 -14 -12 -22 -6 -19 18 11 13 -10 -6 -25
-10 -8 -14 -9 -10 -2 4 6 3 14 -2 18 -6 3 -8 -3 -6 -14 4 -20 -28 -115 -36
-107 -2 2 -5 -5 -6 -17 -9 -81 -16 -116 -22 -113 -4 3 -7 -3 -7 -12 -5 -121
-5 -160 1 -175 4 -9 5 -24 2 -32 -4 -8 0 -27 8 -42 8 -15 11 -29 5 -31 -5 -2
-6 -10 -3 -18 5 -13 7 -13 14 -2 6 9 9 7 9 -9 0 -12 9 -43 20 -69 14 -33 17
-51 10 -58 -5 -5 -10 -14 -10 -20 0 -5 7 -1 15 10 15 19 16 19 13 -1 -2 -11 3
-20 9 -20 16 0 64 -70 55 -80 -4 -3 -2 -5 3 -4 6 2 27 -13 47 -33 29 -28 34
-38 25 -49 -8 -9 -5 -8 7 1 18 14 19 13 13 -3 -4 -11 -3 -16 3 -12 6 4 32 -10
59 -29 27 -20 53 -36 59 -36 6 0 12 -5 14 -10 2 -6 16 -13 32 -16 39 -7 48
-13 40 -27 -5 -8 -3 -8 7 1 15 14 33 16 25 3 -6 -10 24 -25 32 -16 3 3 -1 5
-8 5 -7 0 -11 2 -8 5 7 7 39 -5 34 -14 -5 -7 77 -15 164 -15 97 0 169 8 162
18 -3 5 2 7 11 3 10 -3 17 -3 17 1 0 5 13 7 30 6 16 -1 27 2 24 7 -10 16 47
31 65 17 14 -11 14 -11 4 3 -11 13 -6 18 30 34 23 11 46 18 50 17 5 -1 6 2 2
8 -3 5 -2 10 2 10 5 0 20 11 35 25 25 23 28 24 37 7 6 -9 11 -12 11 -5 0 6 -5
15 -10 18 -11 7 58 79 75 79 6 1 10 6 10 12 0 16 38 84 48 84 4 0 5 -5 1 -12
-4 -7 -3 -8 4 -4 6 4 8 14 5 23 -5 12 -3 14 7 8 9 -5 11 -4 6 3 -4 7 2 33 13
58 12 26 21 56 21 68 0 17 2 18 10 6 8 -12 10 -10 9 10 -1 27 9 95 18 120 10
31 2 191 -9 183 -5 -2 -8 11 -8 30 0 19 -7 52 -16 72 -13 31 -13 39 -2 46 10
7 10 9 -2 9 -18 0 -43 57 -33 74 3 6 3 8 -2 4 -9 -9 -35 9 -35 24 0 6 8 4 18
-3 15 -13 16 -12 3 4 -7 9 -21 17 -30 18 -9 0 -11 3 -4 5 8 4 1 20 -18 49 -32
48 -46 59 -69 60 -9 0 -15 9 -14 22 1 13 -3 20 -7 17 -5 -3 -7 -10 -4 -15 4
-5 1 -9 -4 -9 -6 0 -11 7 -11 16 0 8 -4 13 -9 10 -12 -8 -34 20 -27 33 4 5 -3
7 -16 3 -14 -3 -19 -1 -14 6 4 7 2 10 -6 7 -17 -6 -59 30 -56 47 2 9 -8 12
-36 10 -29 -3 -36 -1 -31 9 5 7 4 10 -2 6 -5 -3 -27 -1 -49 5 -21 7 -41 12
-44 13 -58 17 -168 23 -235 14z m225 -35 c81 -19 210 -81 270 -131 142 -117
225 -267 252 -454 27 -189 -46 -399 -190 -547 -122 -125 -269 -192 -445 -200
-122 -5 -199 7 -290 46 -189 80 -330 234 -394 429 -33 101 -37 252 -9 360 34
136 123 273 236 366 58 48 188 112 265 131 80 19 224 19 305 0z m165 -24 c-3
-5 -14 -10 -23 -10 -15 0 -15 2 -2 10 20 13 33 13 25 0z m234 -196 c11 -19 17
-34 13 -34 -4 0 -17 18 -30 40 -13 24 -28 38 -34 34 -7 -4 -8 -3 -4 5 10 16
28 1 55 -45z m-1069 25 c-7 -11 -14 -18 -17 -15 -3 3 0 12 7 21 18 21 23 19
10 -6z"/>
<path d="M2435 4157 c-230 -77 -359 -304 -300 -530 21 -81 50 -132 108 -194
173 -183 457 -185 630 -4 62 65 91 115 112 198 52 200 -44 407 -233 501 -70
34 -82 37 -176 39 -64 2 -116 -2 -141 -10z m205 -19 c0 -9 3 -10 8 -2 5 8 15
7 37 -1 25 -11 27 -13 10 -18 -11 -3 -5 -5 15 -5 54 1 62 -1 54 -14 -5 -8 -2
-9 10 -5 9 4 15 3 12 -2 -3 -5 1 -12 10 -15 8 -3 12 -10 9 -16 -3 -5 0 -8 7
-5 7 2 27 -7 43 -21 17 -15 23 -23 15 -19 -12 7 -13 6 -2 -6 7 -8 18 -14 25
-14 7 0 11 -9 9 -19 -2 -13 1 -16 10 -10 11 6 11 5 0 -8 -11 -14 -10 -18 6
-30 35 -24 45 -52 56 -153 10 -94 -32 -265 -65 -265 -6 0 -9 -7 -5 -15 3 -8 2
-14 -2 -13 -4 1 -24 -15 -44 -36 -21 -20 -42 -35 -48 -31 -5 3 -7 0 -4 -8 6
-16 -85 -67 -118 -67 -10 0 -18 -4 -18 -8 0 -5 -49 -8 -110 -8 -60 0 -110 3
-110 7 0 4 -18 9 -40 13 -22 3 -40 10 -40 14 0 4 -14 13 -31 21 -18 8 -28 19
-25 26 3 8 -3 19 -12 27 -15 12 -16 11 -3 -4 26 -35 -7 -17 -40 20 -18 20 -36
36 -41 35 -4 -2 -5 4 -2 12 4 8 1 15 -4 15 -6 0 -18 15 -27 33 -56 105 -51
323 8 377 12 12 22 29 22 38 0 9 6 16 14 14 12 -3 12 0 1 12 -10 13 -10 16 3
16 9 0 19 5 23 12 5 7 2 9 -7 3 -8 -4 0 4 16 19 17 14 36 23 43 21 7 -3 10 0
7 5 -3 5 5 15 19 21 14 7 23 15 21 19 -3 5 2 11 11 14 10 4 13 2 8 -6 -5 -7
-3 -8 7 -2 8 5 23 7 34 6 15 -2 17 -1 7 6 -11 7 -7 11 13 16 14 4 30 4 35 1 6
-4 10 -1 10 4 0 7 30 11 80 11 57 0 80 -4 80 -12z"/>
<path d="M2281 4026 c-8 -9 -8 -16 -2 -20 5 -4 13 -1 17 5 4 8 9 7 15 -2 5 -8
9 -9 9 -3 0 6 -6 17 -14 23 -10 8 -16 8 -25 -3z"/>
<path d="M2810 4025 c-7 -9 -10 -18 -6 -22 3 -3 6 -1 6 7 0 10 3 10 14 1 8 -7
17 -8 20 -3 3 6 0 15 -8 21 -10 9 -16 8 -26 -4z"/>
<path d="M2946 4067 c3 -10 9 -15 12 -12 3 3 0 11 -7 18 -10 9 -11 8 -5 -6z"/>
<path d="M3022 3550 c0 -14 2 -19 5 -12 2 6 2 18 0 25 -3 6 -5 1 -5 -13z"/>
<path d="M879 4403 c-13 -16 -12 -17 4 -4 9 7 17 15 17 17 0 8 -8 3 -21 -13z"/>
<path d="M3010 4296 c7 -7 13 -7 20 0 6 6 3 10 -10 10 -13 0 -16 -4 -10 -10z"/>
<path d="M4320 4266 c0 -2 8 -10 18 -17 15 -13 16 -12 3 4 -13 16 -21 21 -21
13z"/>
<path d="M713 4238 c-15 -20 -25 -38 -20 -38 3 0 12 11 21 25 17 26 16 35 -1
13z"/>
<path d="M2009 4223 c-13 -16 -12 -17 4 -4 9 7 17 15 17 17 0 8 -8 3 -21 -13z"/>
<path d="M3090 4236 c0 -2 8 -10 18 -17 15 -13 16 -12 3 4 -13 16 -21 21 -21
13z"/>
<path d="M4423 4193 c4 -3 1 -13 -6 -22 -11 -14 -10 -14 5 -2 16 12 16 31 1
31 -4 0 -3 -3 0 -7z"/>
<path d="M680 4186 c0 -2 8 -10 18 -17 15 -13 16 -12 3 4 -13 16 -21 21 -21
13z"/>
<path d="M1946 4148 c3 -5 10 -6 15 -3 13 9 11 12 -6 12 -8 0 -12 -4 -9 -9z"/>
<path d="M345 3709 c-4 -6 -5 -12 -2 -15 2 -3 7 2 10 11 7 17 1 20 -8 4z"/>
<path d="M765 3420 c5 -9 1 -10 -16 -5 -18 5 -21 4 -9 -4 8 -6 24 -8 35 -5 20
6 20 6 0 -9 -14 -11 -24 -12 -33 -5 -7 6 -15 8 -19 4 -3 -3 -1 -6 5 -6 7 0 12
-5 12 -11 0 -5 -5 -7 -10 -4 -6 4 -9 3 -8 -2 1 -4 -5 -21 -15 -38 -12 -23 -16
-26 -17 -11 0 11 -1 17 -2 15 -2 -2 -1 -414 2 -915 5 -873 6 -913 24 -933 10
-11 16 -27 12 -36 -5 -13 -2 -14 15 -4 13 7 19 7 15 1 -3 -6 11 -16 31 -23 52
-16 57 -20 42 -30 -9 -6 -2 -7 17 -3 19 4 34 1 38 -5 5 -7 1 -8 -11 -4 -10 3
-15 3 -11 -2 4 -4 15 -9 25 -10 56 -6 81 -18 76 -34 -3 -12 -2 -13 4 -3 8 10
16 10 41 -1 18 -7 29 -17 25 -21 -5 -4 -3 -6 2 -5 17 5 83 -19 168 -62 21 -10
44 -19 51 -19 7 0 19 -7 26 -15 7 -8 23 -15 36 -15 12 0 29 -6 36 -13 7 -8 20
-12 28 -10 10 3 9 -1 -4 -11 -17 -14 -16 -15 17 -9 26 4 45 0 69 -14 18 -11
57 -28 85 -39 37 -12 49 -21 40 -27 -8 -6 -6 -7 6 -3 10 3 25 -1 33 -9 8 -8
22 -11 31 -8 9 4 14 2 10 -3 -3 -6 3 -10 13 -11 11 -1 43 -13 71 -27 28 -14
57 -26 65 -26 8 0 14 -4 14 -10 0 -5 7 -7 15 -4 8 4 15 1 15 -5 0 -7 6 -11 13
-10 18 3 78 -26 70 -34 -3 -4 8 -7 26 -7 22 0 30 -4 25 -12 -4 -7 -3 -8 4 -4
6 4 22 0 34 -8 13 -8 34 -17 48 -19 39 -8 84 -34 68 -40 -7 -3 4 -6 25 -6 26
-1 36 -5 31 -13 -5 -7 -2 -9 8 -5 9 3 19 2 24 -3 5 -4 26 -13 46 -19 20 -7 42
-19 48 -27 7 -7 17 -14 23 -14 6 0 2 7 -9 16 -14 11 -10 10 13 -2 21 -12 28
-21 21 -25 -7 -4 5 -6 25 -5 20 2 34 0 32 -4 -6 -9 89 -40 123 -40 34 0 134
31 150 47 7 7 22 13 32 13 11 0 36 9 57 19 57 30 96 44 112 42 8 -1 10 2 5 10
-5 9 -2 10 9 6 8 -3 20 0 26 7 6 7 35 21 66 31 30 11 55 22 55 26 0 12 88 31
111 24 24 -7 24 -7 4 10 -17 14 -18 16 -2 11 10 -3 15 -2 12 4 -3 5 10 12 30
16 19 3 35 11 35 16 0 6 8 4 17 -3 12 -10 14 -10 9 -1 -4 7 0 14 11 18 10 3
43 17 73 32 30 14 71 25 90 25 19 0 27 2 16 5 -13 3 0 13 44 34 51 24 65 27
72 16 8 -10 9 -9 5 3 -5 16 20 28 76 34 10 1 21 6 25 10 4 5 -1 5 -11 2 -10
-4 -16 -3 -12 2 3 5 19 12 36 16 17 4 42 13 57 21 15 8 34 14 43 14 9 0 22 7
30 16 7 9 22 14 36 11 20 -4 21 -2 11 11 -7 9 -8 13 -2 9 6 -3 29 3 50 14 21
11 56 25 76 31 21 6 36 14 34 17 -3 4 14 5 37 4 38 -2 39 -1 12 6 -16 5 -23 9
-14 10 8 0 44 12 78 26 53 22 66 24 79 13 15 -11 15 -11 4 3 -11 14 -8 18 20
29 18 7 49 19 68 28 19 8 41 15 48 15 6 0 10 2 7 5 -2 3 4 16 15 29 11 14 22
40 26 59 3 19 11 34 18 34 7 0 7 3 -2 8 -10 7 -12 185 -10 879 2 479 0 867 -3
861 -3 -5 -9 -2 -13 7 -3 9 -3 21 0 26 3 5 0 8 -8 7 -8 -2 -13 6 -12 18 1 17
-3 20 -19 16 -13 -3 -18 -1 -14 5 4 6 0 14 -9 17 -9 3 -12 2 -9 -5 6 -9 -21
-6 -62 6 -7 2 -15 0 -17 -4 -3 -5 -26 -14 -51 -21 -25 -7 -48 -17 -51 -21 -3
-5 -15 -9 -26 -9 -12 0 -29 -7 -39 -16 -13 -12 -22 -13 -37 -5 -14 7 -19 7
-19 -4 0 -8 7 -11 16 -7 9 3 13 1 8 -3 -4 -5 -15 -9 -25 -10 -20 -3 -80 -27
-135 -55 -22 -11 -44 -20 -50 -20 -7 0 -43 -16 -80 -34 -38 -20 -76 -32 -84
-29 -10 4 -14 2 -10 -4 4 -6 0 -14 -9 -17 -24 -9 -42 -6 -19 4 15 7 16 9 4 9
-19 1 -42 -23 -32 -33 4 -4 0 -4 -9 -1 -9 4 -19 2 -23 -4 -3 -6 -15 -11 -26
-11 -12 0 -17 -4 -13 -11 4 -7 0 -9 -14 -5 -12 4 -26 0 -36 -10 -12 -11 -25
-14 -44 -9 -26 6 -26 6 -7 -10 14 -11 15 -15 5 -13 -22 3 -60 -12 -60 -23 0
-6 -9 -7 -20 -4 -11 3 -20 2 -20 -3 0 -5 -6 -10 -12 -9 -7 0 -22 -1 -33 -2
-20 -2 -20 -3 -1 -10 19 -7 19 -8 -2 -13 -12 -4 -22 -2 -22 4 0 5 -7 2 -16 -6
-15 -15 -113 -50 -144 -51 -8 -1 -14 -6 -13 -12 2 -7 -7 -15 -20 -19 -12 -4
-25 -12 -29 -18 -6 -8 -11 -6 -18 4 -5 8 -10 10 -10 4 0 -13 -88 -54 -116 -54
-14 0 -16 -2 -6 -9 10 -6 9 -10 -7 -14 -12 -3 -19 -2 -16 2 2 4 -23 -6 -57
-21 -34 -16 -70 -27 -80 -25 -16 5 -17 3 -6 -10 12 -14 11 -15 -9 -5 -14 8
-24 9 -28 2 -3 -5 -3 -10 2 -10 4 -1 -3 -7 -17 -14 -14 -8 -28 -12 -32 -10 -5
3 -8 0 -8 -6 0 -6 -4 -8 -10 -5 -5 3 -10 1 -10 -5 0 -6 -5 -8 -10 -5 -6 4 -17
1 -25 -5 -8 -7 -22 -10 -30 -6 -9 3 -14 2 -11 -3 3 -5 -5 -8 -18 -7 -13 0 -22
4 -20 7 3 6 -27 18 -56 23 -23 5 -69 30 -65 36 3 5 -7 7 -22 5 l-26 -3 24 20
c21 17 22 18 2 9 -29 -15 -54 -15 -33 0 12 8 11 9 -6 4 -12 -3 -42 4 -70 16
-27 12 -53 21 -58 20 -5 -1 -12 2 -15 6 -11 15 -62 33 -73 27 -7 -4 -8 -2 -4
4 4 7 -7 14 -30 18 -26 5 -32 9 -22 16 9 7 7 8 -8 4 -13 -4 -28 2 -44 16 -13
12 -29 23 -34 24 -58 9 -76 14 -111 29 -22 10 -57 25 -77 34 -21 9 -38 20 -38
25 0 4 -7 6 -15 2 -8 -3 -15 -2 -15 2 0 10 -59 32 -84 32 -9 0 -15 4 -12 9 3
5 -4 11 -15 14 -12 3 -18 10 -14 16 3 6 0 9 -8 5 -8 -3 -32 2 -53 12 -22 9
-45 16 -51 15 -17 -2 -55 18 -49 27 2 4 -6 8 -18 8 -13 1 -53 16 -90 33 -37
17 -71 31 -76 31 -4 0 -25 9 -47 20 -43 22 -113 52 -128 55 -5 1 -17 3 -25 4
-13 1 -13 2 0 12 12 8 11 9 -6 4 -13 -3 -26 1 -34 10 -7 8 -20 15 -30 15 -15
0 -59 17 -102 41 -10 5 -34 9 -54 9 -19 0 -45 5 -56 11 -16 8 -19 8 -13 -1z
m282 -114 c109 -46 288 -122 398 -169 110 -46 380 -161 600 -255 220 -93 426
-181 457 -195 l58 -26 87 38 c49 21 207 89 353 150 146 62 281 119 300 128 41
18 485 207 773 329 109 46 210 84 223 84 40 0 80 -26 98 -64 14 -31 16 -121
16 -919 0 -877 0 -885 -21 -910 -11 -15 -35 -33 -52 -41 -29 -14 -734 -315
-1453 -622 -169 -72 -305 -124 -324 -124 -19 0 -221 81 -508 204 -262 112
-648 277 -857 366 -473 201 -441 186 -465 225 -20 32 -20 48 -20 914 0 781 2
885 16 912 16 31 62 58 101 59 12 0 111 -38 220 -84z"/>
<path d="M1307 3149 c7 -7 15 -10 18 -7 3 3 -2 9 -12 12 -14 6 -15 5 -6 -5z"/>
<path d="M950 3084 c0 -2 0 -329 0 -726 l0 -721 197 -85 c232 -98 856 -364
1093 -464 91 -39 173 -75 183 -80 16 -8 17 28 15 718 l-3 727 -275 117 c-151
64 -457 195 -680 289 -223 95 -433 185 -467 201 -35 16 -63 27 -63 24z m72
-52 c18 -10 46 -22 62 -26 23 -6 27 -9 15 -17 -20 -12 -32 -11 -23 3 5 7 3 8
-5 3 -24 -14 4 -25 39 -15 19 5 36 6 39 2 4 -5 26 -16 51 -26 73 -29 110 -48
106 -55 -2 -3 6 -7 17 -7 12 -1 45 -10 74 -22 28 -11 55 -17 60 -13 4 3 1 -3
-7 -13 -14 -18 -14 -19 10 -6 22 12 24 12 12 -3 -11 -13 -10 -15 7 -10 12 3
27 0 34 -6 8 -6 18 -7 22 -3 5 4 5 2 2 -4 -4 -7 4 -14 21 -17 15 -3 40 -11 57
-17 23 -9 26 -13 15 -21 -10 -6 -5 -7 16 -3 19 4 34 1 38 -5 5 -7 1 -8 -11 -4
-10 3 -15 3 -11 -1 3 -4 17 -9 30 -11 54 -8 158 -51 158 -65 0 -6 10 -10 23
-10 13 0 43 -9 66 -21 24 -11 51 -21 61 -22 10 -1 16 -5 13 -11 -4 -5 1 -7 11
-3 10 4 15 3 11 -3 -3 -6 2 -10 12 -10 10 0 27 -6 38 -14 11 -7 35 -17 53 -21
18 -4 29 -11 26 -17 -4 -6 2 -8 17 -3 16 4 20 3 10 -3 -12 -9 16 -19 71 -25 9
-1 14 -5 12 -9 -3 -4 8 -10 23 -14 15 -3 49 -15 76 -27 l47 -22 0 -697 c0
-384 -2 -698 -5 -698 -10 0 -91 34 -103 44 -8 5 -23 11 -35 13 -11 2 -27 9
-36 16 -12 10 -13 9 -6 -2 4 -7 -5 -4 -22 8 -16 12 -39 23 -50 24 -12 0 -19 5
-16 11 4 5 -1 7 -11 3 -11 -5 -15 -3 -10 5 5 8 2 9 -9 5 -9 -3 -19 -2 -22 3
-3 4 0 10 7 12 7 3 5 7 -6 11 -10 4 -15 3 -11 -3 8 -14 6 -13 -61 14 -46 19
-55 26 -41 32 15 5 16 9 5 15 -7 5 -17 9 -23 9 -5 0 -3 -5 5 -10 11 -7 7 -10
-17 -10 -17 0 -35 5 -39 12 -5 7 -3 8 6 3 9 -5 11 -4 6 3 -5 9 -13 9 -28 1
-13 -7 -18 -7 -14 0 4 6 -13 16 -43 25 -71 21 -94 35 -87 53 5 13 4 14 -8 4
-12 -10 -29 -6 -84 18 -39 17 -77 31 -86 31 -9 0 -16 4 -16 8 0 10 -61 33 -71
26 -5 -3 -9 -1 -9 5 0 6 -18 15 -40 21 -22 6 -38 15 -35 20 3 6 0 7 -7 5 -8
-3 -22 2 -33 11 -11 8 -15 13 -9 10 6 -3 11 1 11 9 0 10 -6 10 -26 -3 -14 -10
-22 -12 -18 -5 5 8 -4 14 -30 19 -21 4 -51 15 -67 25 -16 10 -34 15 -39 12 -6
-3 -7 -1 -3 6 4 6 12 8 18 5 7 -4 8 -2 4 4 -5 9 -13 9 -26 2 -28 -15 -37 -12
-14 5 19 14 19 14 -1 9 -24 -5 -138 40 -127 51 4 4 -3 4 -15 1 -13 -4 -23 -3
-23 2 0 5 -8 12 -17 14 -17 5 -18 45 -15 701 1 435 6 697 12 697 5 0 24 -8 42
-18z"/>
<path d="M2208 2503 c7 -3 16 -2 19 1 4 3 -2 6 -13 5 -11 0 -14 -3 -6 -6z"/>
<path d="M2168 2493 c7 -3 16 -2 19 1 4 3 -2 6 -13 5 -11 0 -14 -3 -6 -6z"/>
<path d="M2380 2436 c0 -2 7 -7 16 -10 8 -3 12 -2 9 4 -6 10 -25 14 -25 6z"/>
<path d="M1410 1490 c8 -5 20 -10 25 -10 6 0 3 5 -5 10 -8 5 -19 10 -25 10 -5
0 -3 -5 5 -10z"/>
<path d="M4154 3081 c-5 -4 -166 -75 -359 -156 -192 -82 -521 -222 -730 -311
l-380 -162 -3 -726 -2 -725 82 35 c46 20 173 74 283 121 110 47 367 156 570
243 204 87 412 176 463 197 l92 39 0 724 c0 397 -1 724 -3 726 -2 2 -8 0 -13
-5z m-4 -732 c0 -554 -2 -695 -12 -698 -7 -2 -16 -8 -19 -13 -3 -5 -15 -10
-27 -13 -12 -2 -42 -13 -68 -24 -26 -12 -54 -21 -64 -21 -9 0 -28 -9 -41 -21
-13 -11 -36 -23 -51 -26 -16 -3 -28 -9 -28 -14 0 -5 -9 -9 -20 -9 -11 0 -20
-5 -20 -10 0 -7 -6 -8 -17 -1 -13 7 -23 4 -39 -14 -12 -14 -35 -27 -51 -31
-15 -4 -34 -12 -42 -18 -7 -6 -19 -11 -25 -11 -25 -2 -66 -18 -66 -26 0 -5 -7
-9 -16 -9 -20 0 -138 -51 -142 -62 -2 -4 -10 -4 -19 -1 -12 5 -14 3 -8 -8 7
-11 5 -11 -10 1 -10 8 -16 10 -12 4 6 -11 -37 -35 -71 -40 -6 -1 -31 -12 -55
-23 -24 -12 -52 -21 -63 -21 -10 0 -26 -5 -34 -11 -12 -8 -10 -9 8 -4 12 3 22
4 22 1 0 -3 -20 -11 -45 -17 -25 -6 -43 -15 -40 -19 2 -4 -12 -6 -32 -4 -26 2
-32 0 -23 -7 11 -6 7 -9 -15 -9 -24 0 -27 -2 -15 -11 12 -9 11 -10 -7 -6 -13
3 -23 2 -23 -3 0 -4 -27 -16 -59 -26 -33 -11 -57 -22 -55 -26 2 -4 -1 -10 -7
-14 -8 -4 -9 -3 -5 4 4 7 1 12 -8 12 -9 0 -16 -4 -16 -9 0 -11 -55 -41 -87
-47 l-23 -4 0 699 c0 649 1 700 17 694 10 -4 14 -2 10 4 -4 6 17 18 48 28 30
10 51 23 48 28 -3 6 -1 7 4 4 6 -4 25 0 43 9 20 10 43 14 63 10 30 -6 30 -6
12 10 -17 13 -17 15 -2 10 9 -3 17 -2 17 3 0 12 50 32 62 25 6 -4 8 -2 4 4 -8
13 48 27 66 16 9 -6 9 -3 -1 9 -12 15 -12 17 4 11 14 -6 16 -4 10 6 -5 7 -4
11 1 8 13 -8 146 46 137 56 -4 4 0 4 10 0 9 -3 14 -11 10 -18 -4 -6 1 -5 10 3
19 15 23 26 5 15 -7 -4 -8 -3 -4 4 4 7 11 12 16 12 11 0 190 74 243 101 22 10
45 19 53 19 8 0 14 5 14 10 0 6 5 10 11 10 5 0 8 -4 4 -9 -5 -10 56 17 65 28
12 15 88 45 112 45 15 0 24 4 21 10 -4 5 1 7 11 3 10 -4 15 -3 11 3 -3 5 11
16 31 25 30 12 39 13 47 3 6 -9 7 -8 4 4 -5 12 2 18 26 24 18 3 41 11 52 17
27 15 149 65 152 63 2 -1 3 -315 3 -697z"/>
<path d="M3505 2751 c-3 -5 -2 -12 3 -15 5 -3 9 1 9 9 0 17 -3 19 -12 6z"/>
<path d="M3460 2740 c8 -5 20 -10 25 -10 6 0 3 5 -5 10 -8 5 -19 10 -25 10 -5
0 -3 -5 5 -10z"/>
<path d="M2467 1005 c-4 -8 -3 -16 1 -19 4 -3 9 4 9 15 2 23 -3 25 -10 4z"/>
<path d="M4930 3290 c0 -5 5 -10 11 -10 5 0 7 5 4 10 -3 6 -8 10 -11 10 -2 0
-4 -4 -4 -10z"/>
<path d="M1460 3166 c0 -2 7 -6 15 -10 8 -3 15 -1 15 4 0 6 -7 10 -15 10 -8 0
-15 -2 -15 -4z"/>
<path d="M670 2358 c-3 -422 -2 -764 3 -759 4 4 6 349 5 767 l-3 759 -5 -767z"/>
<path d="M1628 3103 c7 -3 16 -2 19 1 4 3 -2 6 -13 5 -11 0 -14 -3 -6 -6z"/>
<path d="M4445 2345 c0 -412 1 -583 2 -378 2 204 2 542 0 750 -1 208 -2 41 -2
-372z"/>
<path d="M3068 2928 c5 -5 16 -8 23 -6 8 3 3 7 -10 11 -17 4 -21 3 -13 -5z"/>
<path d="M2458 2743 c7 -3 16 -2 19 1 4 3 -2 6 -13 5 -11 0 -14 -3 -6 -6z"/>
<path d="M4930 1829 c0 -5 5 -7 10 -4 6 3 10 8 10 11 0 2 -4 4 -10 4 -5 0 -10
-5 -10 -11z"/>
<path d="M4836 1587 c3 -10 9 -15 12 -12 3 3 0 11 -7 18 -10 9 -11 8 -5 -6z"/>
<path d="M340 1425 c0 -5 5 -17 10 -25 5 -8 10 -10 10 -5 0 6 -5 17 -10 25 -5
8 -10 11 -10 5z"/>
<path d="M4305 1391 c-3 -5 -2 -12 3 -15 5 -3 9 1 9 9 0 17 -3 19 -12 6z"/>
<path d="M4260 1380 c8 -5 20 -10 25 -10 6 0 3 5 -5 10 -8 5 -19 10 -25 10 -5
0 -3 -5 5 -10z"/>
<path d="M4041 1291 c-10 -7 -7 -9 12 -8 14 1 23 5 20 10 -6 9 -15 9 -32 -2z"/>
<path d="M689 943 c-13 -16 -12 -17 4 -4 9 7 17 15 17 17 0 8 -8 3 -21 -13z"/>
<path d="M4410 956 c0 -2 8 -10 18 -17 15 -13 16 -12 3 4 -13 16 -21 21 -21
13z"/>
<path d="M870 726 c0 -2 8 -10 18 -17 15 -13 16 -12 3 4 -13 16 -21 21 -21 13z"/>
<path d="M1150 550 c-9 -6 -10 -10 -3 -10 6 0 15 5 18 10 8 12 4 12 -15 0z"/>
<path d="M3957 549 c7 -7 15 -10 18 -7 3 3 -2 9 -12 12 -14 6 -15 5 -6 -5z"/>
<path d="M1360 376 c4 -4 16 -4 26 2 16 9 14 10 -8 9 -15 -1 -23 -6 -18 -11z"/>
<path d="M3687 379 c7 -7 15 -10 18 -7 3 3 -2 9 -12 12 -14 6 -15 5 -6 -5z"/>
<path d="M3750 380 c-9 -6 -10 -10 -3 -10 6 0 15 5 18 10 8 12 4 12 -15 0z"/>
<path d="M3365 230 c-3 -6 1 -7 9 -4 18 7 21 14 7 14 -6 0 -13 -4 -16 -10z"/>
<path d="M725 4381 c2 -19 18 -17 21 2 1 8 -4 14 -11 14 -7 0 -12 -7 -10 -16z"/>
<path d="M4357 4381 c-10 -14 -10 -14 4 -4 20 16 32 5 17 -16 -10 -13 -10 -14
2 -4 8 7 15 19 16 26 2 19 -24 17 -39 -2z"/>
<path d="M729 758 c-5 -18 -6 -38 -1 -34 7 8 12 36 6 36 -2 0 -4 -1 -5 -2z"/>
<path d="M4339 733 c-13 -16 -12 -17 4 -4 16 13 21 21 13 21 -2 0 -10 -8 -17
-17z"/>
</g>
</svg>
