<?xml version="1.0" encoding="utf-8"?>
<!-- Generator: Adobe Illustrator 27.5.0, SVG Export Plug-In . SVG Version: 6.00 Build 0)  -->
<svg version="1.1" xmlns="http://www.w3.org/2000/svg" xmlns:xlink="http://www.w3.org/1999/xlink" x="0px" y="0px"
	 viewBox="0 0 4975 4975" style="enable-background:new 0 0 4975 4975;" xml:space="preserve">
<g id="Layer_1">
	<radialGradient id="SVGID_1_" cx="2487.5" cy="2487.5" r="3776.8708" gradientUnits="userSpaceOnUse">
		<stop  offset="0" style="stop-color:#FFFFFF"/>
		<stop  offset="0.6286" style="stop-color:#FFFFFF"/>
		<stop  offset="0.7012" style="stop-color:#FAFAFB"/>
		<stop  offset="0.7844" style="stop-color:#ECEDED"/>
		<stop  offset="0.8728" style="stop-color:#D5D6D8"/>
		<stop  offset="0.9643" style="stop-color:#B6B7BA"/>
		<stop  offset="1" style="stop-color:#A7A9AC"/>
	</radialGradient>
	<rect style="fill:url(#SVGID_1_);" width="4975" height="4975"/>
	<path style="fill:none;" d="M0,0v4975h4975V0H0z"/>
	<g>
		<g>
			<g>
				<g>
					
						<linearGradient id="SVGID_00000081605974259833156960000010325527769534836156_" gradientUnits="userSpaceOnUse" x1="2938.9133" y1="1785.5634" x2="3160.8696" y2="1251.6703">
						<stop  offset="0" style="stop-color:#ED1C24"/>
						<stop  offset="1" style="stop-color:#603913"/>
					</linearGradient>
					<polygon style="fill:url(#SVGID_00000081605974259833156960000010325527769534836156_);" points="2778.836,1385.81 
						3157.143,1245.931 3332.496,1623.644 3270.172,1596.826 3150.6,1875.214 3056.818,1834.91 3131.602,1660.77 3022.994,1614.144 
						2948.211,1788.315 2721.559,1690.982 2841.098,1412.564 					"/>
				</g>
			</g>
			<g>
				
					<linearGradient id="SVGID_00000092431889926301126730000002010099211627368105_" gradientUnits="userSpaceOnUse" x1="2398.8552" y1="1236.1622" x2="2426.1577" y2="1236.1622" gradientTransform="matrix(-0.9189 -0.3945 -0.3945 0.9189 5834.9131 1195.5629)">
					<stop  offset="0" style="stop-color:#FBF392"/>
					<stop  offset="1" style="stop-color:#F9ED32"/>
				</linearGradient>
				<polygon style="fill:url(#SVGID_00000092431889926301126730000002010099211627368105_);" points="3112.51,1386.899 
					3137.52,1397.707 3148.328,1372.572 3123.256,1361.764 				"/>
				
					<linearGradient id="SVGID_00000022546856071641180610000000825287858615772837_" gradientUnits="userSpaceOnUse" x1="2437.6311" y1="1236.1519" x2="2464.9766" y2="1236.1519" gradientTransform="matrix(-0.9189 -0.3945 -0.3945 0.9189 5834.9131 1195.5629)">
					<stop  offset="0" style="stop-color:#FBF392"/>
					<stop  offset="1" style="stop-color:#F9ED32"/>
				</linearGradient>
				<polygon style="fill:url(#SVGID_00000022546856071641180610000000825287858615772837_);" points="3076.814,1371.544 
					3101.92,1382.352 3112.695,1357.279 3087.563,1346.502 				"/>
				
					<linearGradient id="SVGID_00000180336169794858766260000016451306745370419129_" gradientUnits="userSpaceOnUse" x1="2398.8123" y1="1272.6287" x2="2426.2051" y2="1272.6287" gradientTransform="matrix(-0.9189 -0.3945 -0.3945 0.9189 5834.9131 1195.5629)">
					<stop  offset="0" style="stop-color:#FBF392"/>
					<stop  offset="1" style="stop-color:#F9ED32"/>
				</linearGradient>
				<polygon style="fill:url(#SVGID_00000180336169794858766260000016451306745370419129_);" points="3098.027,1420.444 
					3123.129,1431.159 3134,1406.055 3108.803,1395.309 				"/>
				
					<linearGradient id="SVGID_00000039123357325828254060000012373261567769059750_" gradientUnits="userSpaceOnUse" x1="2437.5867" y1="1272.6328" x2="2464.9683" y2="1272.6328" gradientTransform="matrix(-0.9189 -0.3945 -0.3945 0.9189 5834.9131 1195.5629)">
					<stop  offset="0" style="stop-color:#FBF392"/>
					<stop  offset="1" style="stop-color:#F9ED32"/>
				</linearGradient>
				<polygon style="fill:url(#SVGID_00000039123357325828254060000012373261567769059750_);" points="3062.393,1405.151 
					3087.563,1415.928 3098.369,1390.761 3073.232,1380.016 				"/>
			</g>
		</g>
		<g>
			<g>
				<g>
					
						<linearGradient id="SVGID_00000142877293888732014670000011020511933098673813_" gradientUnits="userSpaceOnUse" x1="2938.9148" y1="1785.5634" x2="3160.8711" y2="1251.6703" gradientTransform="matrix(-1 0 0 1 4968.8809 0)">
						<stop  offset="0" style="stop-color:#ED1C24"/>
						<stop  offset="1" style="stop-color:#603913"/>
					</linearGradient>
					<polygon style="fill:url(#SVGID_00000142877293888732014670000011020511933098673813_);" points="2190.043,1385.81 
						1811.737,1245.931 1636.383,1623.644 1698.708,1596.826 1818.28,1875.214 1912.061,1834.91 1837.278,1660.77 
						1945.886,1614.144 2020.668,1788.315 2247.321,1690.982 2127.782,1412.564 					"/>
				</g>
			</g>
			<g>
				
					<linearGradient id="SVGID_00000046302132470030317530000014609961023063729051_" gradientUnits="userSpaceOnUse" x1="2398.8538" y1="1236.1617" x2="2426.1572" y2="1236.1617" gradientTransform="matrix(0.9189 -0.3945 0.3945 0.9189 -866.0324 1195.5629)">
					<stop  offset="0" style="stop-color:#FBF392"/>
					<stop  offset="1" style="stop-color:#F9ED32"/>
				</linearGradient>
				<polygon style="fill:url(#SVGID_00000046302132470030317530000014609961023063729051_);" points="1856.37,1386.899 
					1831.36,1397.707 1820.551,1372.572 1845.625,1361.764 				"/>
				
					<linearGradient id="SVGID_00000126296038504314056720000014110648760347211655_" gradientUnits="userSpaceOnUse" x1="2437.6296" y1="1236.1515" x2="2464.9761" y2="1236.1515" gradientTransform="matrix(0.9189 -0.3945 0.3945 0.9189 -866.0324 1195.5629)">
					<stop  offset="0" style="stop-color:#FBF392"/>
					<stop  offset="1" style="stop-color:#F9ED32"/>
				</linearGradient>
				<polygon style="fill:url(#SVGID_00000126296038504314056720000014110648760347211655_);" points="1892.065,1371.544 
					1866.96,1382.352 1856.184,1357.279 1881.318,1346.502 				"/>
				
					<linearGradient id="SVGID_00000006708741664174199070000006201034709286824624_" gradientUnits="userSpaceOnUse" x1="2398.811" y1="1272.6282" x2="2426.2036" y2="1272.6282" gradientTransform="matrix(0.9189 -0.3945 0.3945 0.9189 -866.0324 1195.5629)">
					<stop  offset="0" style="stop-color:#FBF392"/>
					<stop  offset="1" style="stop-color:#F9ED32"/>
				</linearGradient>
				<polygon style="fill:url(#SVGID_00000006708741664174199070000006201034709286824624_);" points="1870.853,1420.444 
					1845.75,1431.159 1834.879,1406.055 1860.077,1395.309 				"/>
				
					<linearGradient id="SVGID_00000021839739755560460480000001453671884793575078_" gradientUnits="userSpaceOnUse" x1="2437.5859" y1="1272.6324" x2="2464.9668" y2="1272.6324" gradientTransform="matrix(0.9189 -0.3945 0.3945 0.9189 -866.0324 1195.5629)">
					<stop  offset="0" style="stop-color:#FBF392"/>
					<stop  offset="1" style="stop-color:#F9ED32"/>
				</linearGradient>
				<polygon style="fill:url(#SVGID_00000021839739755560460480000001453671884793575078_);" points="1906.487,1405.151 
					1881.318,1415.928 1870.511,1390.761 1895.647,1380.016 				"/>
			</g>
		</g>
		<g>
			<g>
				<g>
					
						<linearGradient id="SVGID_00000129907964438731833230000015521041070558481306_" gradientUnits="userSpaceOnUse" x1="2453.8005" y1="1745.4156" x2="2483.7939" y2="773.6102">
						<stop  offset="0" style="stop-color:#F7941D"/>
						<stop  offset="1" style="stop-color:#ED1C24"/>
					</linearGradient>
					<polygon style="fill:url(#SVGID_00000129907964438731833230000015521041070558481306_);" points="2979.482,1239.078 
						2484.44,768.767 1959.374,1239.078 2074.21,1239.078 2074.21,1751.905 2247.042,1751.905 2247.042,1431.127 2447.158,1431.127 
						2447.158,1751.905 2864.646,1751.905 2864.646,1239.078 					"/>
				</g>
			</g>
			<g>
				
					<linearGradient id="SVGID_00000070084087504998299050000006862963845494804130_" gradientUnits="userSpaceOnUse" x1="2413.52" y1="994.7339" x2="2459.772" y2="994.7339">
					<stop  offset="0" style="stop-color:#FBF392"/>
					<stop  offset="1" style="stop-color:#F9ED32"/>
				</linearGradient>
				
					<rect x="2413.52" y="971.592" style="fill:url(#SVGID_00000070084087504998299050000006862963845494804130_);" width="46.252" height="46.283"/>
				
					<linearGradient id="SVGID_00000070105585877084260530000015222978923071189130_" gradientUnits="userSpaceOnUse" x1="2479.0825" y1="994.7339" x2="2525.3984" y2="994.7339">
					<stop  offset="0" style="stop-color:#FBF392"/>
					<stop  offset="1" style="stop-color:#F9ED32"/>
				</linearGradient>
				
					<rect x="2479.083" y="971.592" style="fill:url(#SVGID_00000070105585877084260530000015222978923071189130_);" width="46.316" height="46.283"/>
				
					<linearGradient id="SVGID_00000143604644110754067020000017566090286648996486_" gradientUnits="userSpaceOnUse" x1="2413.52" y1="1056.4817" x2="2459.772" y2="1056.4817">
					<stop  offset="0" style="stop-color:#FBF392"/>
					<stop  offset="1" style="stop-color:#F9ED32"/>
				</linearGradient>
				
					<rect x="2413.52" y="1033.355" style="fill:url(#SVGID_00000143604644110754067020000017566090286648996486_);" width="46.252" height="46.253"/>
				
					<linearGradient id="SVGID_00000118370447606012535730000003727732902281216905_" gradientUnits="userSpaceOnUse" x1="2479.0825" y1="1056.4817" x2="2525.3984" y2="1056.4817">
					<stop  offset="0" style="stop-color:#FBF392"/>
					<stop  offset="1" style="stop-color:#F9ED32"/>
				</linearGradient>
				
					<rect x="2479.083" y="1033.355" style="fill:url(#SVGID_00000118370447606012535730000003727732902281216905_);" width="46.316" height="46.253"/>
			</g>
		</g>
		
			<radialGradient id="SVGID_00000174565011655461410690000013516692083531623576_" cx="2769.4443" cy="2321.3472" r="1100.9808" gradientUnits="userSpaceOnUse">
			<stop  offset="0" style="stop-color:#27AAE1"/>
			<stop  offset="1" style="stop-color:#2B3990"/>
		</radialGradient>
		<path style="fill:url(#SVGID_00000174565011655461410690000013516692083531623576_);" d="M3449.576,2549.317
			c0,531.36-430.725,962.021-962.052,962.021c-531.359,0-962.1-430.661-962.1-962.021c0-531.358,430.74-962.053,962.1-962.053
			C3018.852,1587.265,3449.576,2017.959,3449.576,2549.317z"/>
		<path style="fill:#FFFFFF;" d="M3298.502,2269.715l-14.141-89.296l-9.281-56.097l-62.012,21.213l-90.98,31.581l-146.514,51.206
			l92.07,52.824c-44.697,80.046-97.488,155.764-157.975,225.5c-101.318,116.551-224.379,214.537-363.76,286.984
			c-138.882,72.945-292.996,120.88-451.999,144.862c-159.064,23.391-322.988,27.223-484.747,2.181v0.56
			c158.488,41.925,324.063,56.095,489.606,49.555c165.574-7.63,332.208-40.335,490.153-102.379
			c157.91-62.666,305.484-155.763,431.877-273.435c78.426-72.447,147.57-153.521,209.648-240.7l94.217,53.945L3298.502,2269.715z"/>
		<path style="fill:#FFFFFF;" d="M2859.742,3163.775l24.48-58.275l15.137-36.659l-44.695-10.31l-65.563-14.607l-105.834-23.579
			l35.193,65.19c-55.877,31.054-115.086,56.656-176.693,75.748c-103.033,31.863-212.108,44.852-321.495,36.535
			c-109.293-7.816-218.492-36.129-321.712-80.42c-102.908-44.633-201.673-102.628-288.495-177.036l-0.217,0.28
			c78.69,83.316,171.758,152.617,272.423,209.615c101.038,56.437,212.045,98.361,328.626,119.634
			c116.831,20.868,238.645,19.934,356.969-3.427c73.227-14.139,144.115-36.815,213.043-65.72l36.066,66.686L2859.742,3163.775z"/>
	</g>
</g>
<g id="Isolation_Mode">
	
		<radialGradient id="SVGID_00000013874123066306044980000004879230434939796147_" cx="2487.5" cy="54452.7617" r="1820.1135" gradientTransform="matrix(1 0 0 0.1803 0 -5684.2993)" gradientUnits="userSpaceOnUse">
		<stop  offset="0" style="stop-color:#808285"/>
		<stop  offset="0.1191" style="stop-color:#9D9FA2"/>
		<stop  offset="0.2679" style="stop-color:#BEC0C2"/>
		<stop  offset="0.4136" style="stop-color:#D9DADC"/>
		<stop  offset="0.5536" style="stop-color:#ECEDEE"/>
		<stop  offset="0.6852" style="stop-color:#F8F9F9"/>
		<stop  offset="0.8" style="stop-color:#FFFFFF"/>
	</radialGradient>
	<path style="fill:url(#SVGID_00000013874123066306044980000004879230434939796147_);" d="M4437.114,4133.53
		c0,215.543-872.873,390.269-1949.613,390.269c-1076.742,0-1949.615-174.726-1949.615-390.269
		c0-215.536,872.873-390.263,1949.615-390.263C3564.241,3743.268,4437.114,3917.994,4437.114,4133.53z"/>
</g>
</svg>
